Full Credits To MustangX @ 1337x
##     ## ##     ##  ######  ########    ###    ##    ##  ######   ##     ## 
###   ### ##     ## ##    ##    ##      ## ##   ###   ## ##    ##   ##   ##  
#### #### ##     ## ##          ##     ##   ##  ####  ## ##          ## ##   
## ### ## ##     ##  ######     ##    ##     ## ## ## ## ##   ####    ###    
##     ## ##     ##       ##    ##    ######### ##  #### ##    ##    ## ##   
##     ## ##     ## ##    ##    ##    ##     ## ##   ### ##    ##   ##   ##  
##     ##  #######   ######     ##    ##     ## ##    ##  ######   ##     ## 


Plot

Late one night, a mysterious car is brought into the Chicago police impound garage after a deadly traffic accident. The on-call mechanics soon discover the car has a mind of its own. With hundreds of horsepower and two tons of reinforced steel at its command, it's a seemingly unstoppable killing machine capable of outrunning -- and outwitting -- humans



 Video
 Video
 ID : 0
 Format : MPEG-4 Visual
 Format profile : Advanced Simple@L5
 Format settings, BVOP : Yes
 Format settings, QPel : No
 Format settings, GMC : No warppoints
 Format settings, Matrix : Default (H.263)
 Muxing mode : Packed bitstream
 Codec ID : XVID
 Codec ID/Hint : XviD
 Duration : 1h 34mn
 Bit rate : 919 Kbps
 Width : 656 pixels
 Height : 352 pixels
 Display aspect ratio : 1.864
 Frame rate : 23.976 fps
 Color space : YUV
 Chroma subsampling : 4:2:0
 Bit depth : 8 bits
 Scan type : Progressive
 Bits/(Pixel*Frame) : 0.166
 Stream size : 622 MiB (89%)
 Writing library : XviD 57

 Audio
 ID : 1
 Format : MPEG Audio
 Format version : Version 1
 Format profile : Layer 3
 Mode : Joint stereo
 Mode extension : MS Stereo
 Codec ID : 55
 Codec ID/Hint : MP3
 Duration : 1h 34mn
 Bit rate mode : Variable
 Bit rate : 104 Kbps
 Nominal bit rate : 112 Kbps
 Channel(s) : 2 channels
 Sampling rate : 48.0 KHz
 Stream size : 70.4 MiB (10%)
 Alignment : Aligned on interleaves
 Interleave, duration : 24 ms (0.58 video frame)
 Interleave, preload duration : 177 ms
 Writing library : LAME3.97 
 Encoding settings : -m j -V 4 -q 2 -lowpass 16 --abr 112

 MDB  http://www.imdb.com/title/tt1152827/

 Shout out to nor and all my friends @ 1337x.org and extratorrent




 ==================================                                     http://thepiratebay.org/user/hiest
 ==================================




 Screens:
   http://www.postimg.com/image/46000/photo-45247.jpg


Full Credits To MustangX @ 1337x
##     ## ##     ##  ######  ########    ###    ##    ##  ######   ##     ## 
###   ### ##     ## ##    ##    ##      ## ##   ###   ## ##    ##   ##   ##  
#### #### ##     ## ##          ##     ##   ##  ####  ## ##          ## ##   
## ### ## ##     ##  ######     ##    ##     ## ## ## ## ##   ####    ###    
##     ## ##     ##       ##    ##    ######### ##  #### ##    ##    ## ##   
##     ## ##     ## ##    ##    ##    ##     ## ##   ### ##    ##   ##   ##  
##     ##  #######   ######     ##    ##     ## ##    ##  ######   ##     ## 